<?xml version="1.0" standalone="no"?>
<!DOCTYPE svg PUBLIC "-//W3C//DTD SVG 20010904//EN"
 "http://www.w3.org/TR/2001/REC-SVG-20010904/DTD/svg10.dtd">
<svg version="1.0" xmlns="http://www.w3.org/2000/svg"
 width="1184.000000pt" height="1184.000000pt" viewBox="0 0 1184.000000 1184.000000"
 preserveAspectRatio="xMidYMid meet">
<metadata>
Created by potrace 1.14, written by Peter Selinger 2001-2017
</metadata>
<g transform="translate(0.000000,1184.000000) scale(0.100000,-0.100000)"
fill="#000000" stroke="none">
<path d="M6313 11662 c0 -156 -3 -264 -18 -602 -4 -78 -8 -163 -20 -340 -2
-36 -6 -117 -10 -180 -3 -63 -8 -149 -11 -190 -5 -90 -13 -243 -19 -360 -2
-47 -7 -132 -10 -190 -3 -58 -7 -163 -10 -235 -3 -71 -8 -182 -10 -245 -25
-621 -25 -1507 0 -1955 2 -33 6 -109 9 -170 4 -60 9 -137 12 -170 2 -33 7 -87
9 -120 2 -33 4 -60 5 -60 1 0 3 -23 5 -51 2 -29 6 -78 9 -110 13 -118 27 -240
31 -264 2 -14 6 -47 10 -75 3 -27 8 -66 11 -85 2 -19 6 -48 8 -65 4 -28 11
-72 22 -135 2 -14 8 -52 14 -85 5 -33 12 -71 16 -85 3 -14 7 -36 9 -50 4 -36
14 -85 34 -170 5 -25 12 -56 15 -70 4 -25 44 -182 72 -290 17 -63 19 -70 27
-90 3 -8 20 -62 37 -120 18 -58 37 -111 42 -117 6 -7 8 -13 4 -13 -3 0 1 -17
10 -37 9 -21 17 -42 18 -48 16 -62 188 -438 212 -463 7 -6 16 -22 20 -35 3
-12 15 -34 26 -49 l19 -27 -23 5 c-23 5 -40 8 -93 19 -72 14 -255 44 -315 50
-36 4 -76 9 -90 11 -157 24 -525 33 -763 19 -201 -12 -222 -13 -222 -15 0 -1
-16 -3 -35 -5 -54 -6 -122 -14 -151 -20 -14 -3 -42 -6 -62 -7 -20 -2 -37 -7
-37 -11 0 -5 -4 -6 -9 -2 -5 3 -30 1 -56 -5 -25 -6 -62 -13 -83 -16 -20 -3
-40 -8 -43 -10 -3 -2 -21 -6 -40 -9 -56 -9 -130 -26 -199 -45 -36 -11 -77 -21
-91 -24 -14 -2 -48 -12 -75 -21 -27 -9 -53 -18 -59 -19 -45 -11 -132 -40 -142
-48 -7 -6 -13 -8 -13 -5 0 5 -86 -24 -150 -50 -8 -3 -19 -7 -25 -9 -21 -5
-204 -80 -275 -112 -60 -27 -83 -35 -92 -34 -5 1 -8 -2 -8 -8 0 -5 -5 -10 -10
-10 -15 0 -224 -103 -232 -115 -5 -7 -8 -7 -8 0 0 7 -3 7 -8 0 -6 -9 -133 -78
-199 -109 -13 -6 -23 -14 -23 -18 0 -5 -4 -8 -9 -8 -7 0 -35 -16 -169 -95 -9
-6 -37 -23 -62 -39 -144 -93 -185 -120 -188 -128 -2 -4 -8 -6 -13 -2 -5 3 -9
0 -9 -5 0 -6 -6 -11 -14 -11 -8 0 -16 -4 -18 -8 -1 -5 -25 -23 -53 -42 -27
-19 -54 -38 -60 -42 -5 -5 -21 -17 -34 -28 -13 -11 -27 -20 -31 -20 -3 0 -16
-9 -28 -20 -12 -11 -36 -30 -55 -43 -40 -27 -306 -242 -359 -289 -20 -18 -60
-53 -88 -78 -72 -61 -224 -205 -343 -325 -89 -90 -133 -137 -259 -278 -21 -23
-38 -47 -38 -54 0 -7 19 -21 43 -32 23 -11 88 -45 145 -75 56 -31 102 -53 102
-48 0 4 4 2 8 -4 4 -7 88 -53 187 -104 99 -51 194 -99 210 -108 17 -9 32 -17
35 -17 3 -1 23 -10 45 -22 22 -11 45 -22 50 -23 6 -1 15 -6 21 -11 6 -5 101
-53 212 -108 111 -55 207 -103 214 -107 7 -5 18 -9 23 -10 6 -1 89 -40 185
-86 96 -47 198 -95 225 -108 150 -69 200 -92 200 -90 0 1 33 -15 72 -34 40
-20 76 -36 80 -36 4 0 34 -13 67 -29 69 -33 139 -65 146 -66 7 -2 41 -17 135
-58 78 -35 135 -58 145 -59 3 0 21 -9 40 -19 19 -11 38 -19 43 -19 4 0 28 -9
53 -21 78 -35 528 -212 542 -212 6 0 12 -5 12 -10 0 -6 3 -8 6 -5 3 4 37 -7
75 -22 38 -16 69 -26 69 -23 0 3 6 1 13 -4 6 -5 41 -20 77 -32 36 -12 72 -25
80 -28 8 -3 20 -7 25 -9 6 -2 105 -35 220 -74 116 -39 217 -73 225 -75 8 -2
51 -15 95 -28 95 -30 355 -105 381 -110 11 -2 26 -7 34 -10 17 -6 118 -30 179
-43 14 -3 28 -7 33 -10 5 -3 21 -7 36 -10 51 -9 215 -45 222 -49 5 -3 42 -10
115 -20 66 -9 106 -19 111 -26 3 -5 9 -7 14 -4 5 3 37 1 72 -5 59 -10 111 -17
183 -25 17 -2 30 -4 30 -6 0 -1 16 -3 35 -5 66 -6 125 -12 125 -14 0 0 41 -4
90 -7 195 -14 644 -7 740 11 11 2 40 7 65 10 25 3 56 8 70 11 13 2 42 7 63 10
22 4 50 10 64 16 13 5 38 12 56 15 38 7 47 9 67 16 8 3 44 16 80 28 36 12 78
27 94 33 58 23 242 119 273 143 17 13 36 24 41 24 6 0 12 4 14 8 2 4 21 21 43
37 69 51 143 122 220 210 35 41 168 235 160 235 -4 0 2 12 12 28 41 59 140
318 157 409 11 61 17 89 23 108 4 11 7 27 8 35 2 14 17 99 20 110 1 3 5 23 10
45 9 49 12 58 26 115 6 25 12 52 14 60 21 99 119 400 162 499 12 29 23 55 23
57 0 17 -299 184 -330 184 -6 0 -10 5 -10 11 0 5 -4 8 -8 5 -4 -2 -26 4 -49
14 -102 46 -450 147 -571 166 -19 3 -44 8 -56 10 -11 3 -32 7 -46 10 -14 2
-41 7 -60 11 -19 3 -42 7 -50 8 -8 0 -37 5 -65 10 -27 5 -57 9 -65 10 -8 0
-42 5 -75 9 -66 9 -105 14 -181 20 -27 3 -70 7 -95 10 -71 9 -347 25 -514 30
-33 1 -66 5 -73 10 -6 4 -12 4 -12 -1 0 -4 -24 -7 -52 -6 -59 2 -155 3 -238 4
-30 1 -62 1 -70 1 -26 1 -460 -13 -555 -17 -134 -7 -360 -22 -360 -25 0 -1
-12 -3 -27 -4 -50 -3 -30 9 60 38 48 15 98 32 112 36 64 20 274 81 299 85 9 2
16 4 16 5 0 2 5 3 55 13 14 3 40 10 59 16 19 6 38 8 42 5 5 -3 9 -1 9 4 0 5 6
9 13 9 6 0 86 17 177 36 91 20 184 39 205 42 22 4 47 8 55 10 8 3 35 7 60 10
25 3 52 7 60 10 8 2 39 7 69 10 30 4 63 9 75 11 12 2 41 6 66 9 25 3 65 8 90
11 25 3 68 7 95 9 28 3 70 7 95 10 306 30 850 25 1115 -11 22 -3 54 -7 70 -9
95 -12 122 -16 200 -32 11 -2 42 -8 68 -13 27 -5 54 -12 60 -16 17 -8 -44 47
-78 71 -16 11 -34 26 -41 32 -7 7 -17 13 -22 13 -6 0 -12 4 -14 8 -1 5 -30 28
-63 53 -33 24 -62 46 -65 49 -3 3 -12 10 -21 15 -9 6 -53 36 -99 67 -89 61
-88 59 -14 73 10 2 19 4 19 5 0 1 43 9 77 14 10 1 21 5 24 9 4 4 16 7 26 7 16
0 64 13 253 70 33 10 89 29 125 42 36 14 68 26 73 26 4 1 23 9 43 17 20 8 41
15 46 15 5 0 8 15 7 33 -2 18 0 37 4 43 3 6 3 14 0 18 -4 4 -8 28 -9 54 -2 83
-25 332 -40 437 -3 22 -7 56 -9 75 -1 19 -6 55 -9 80 -4 25 -9 63 -12 85 -2
22 -6 51 -8 65 -2 14 -7 43 -10 65 -3 22 -15 99 -27 170 -21 130 -26 155 -34
197 -2 13 -7 37 -10 53 -3 17 -8 41 -11 55 -3 14 -8 38 -11 54 -3 16 -11 59
-19 95 -8 36 -17 77 -19 91 -8 42 -35 154 -55 228 -6 20 -12 46 -14 57 -2 11
-6 27 -9 35 -3 8 -8 26 -10 40 -5 27 -36 135 -45 160 -3 8 -6 22 -8 30 -4 24
-25 92 -41 135 -8 22 -17 49 -19 60 -2 11 -22 72 -44 135 -22 63 -42 120 -44
125 -14 43 -74 201 -92 240 -17 40 -37 89 -39 95 0 3 -11 27 -23 54 -12 27
-22 50 -22 53 0 11 -169 347 -207 411 -48 82 -54 99 -21 56 13 -16 33 -40 45
-54 13 -14 23 -28 23 -31 0 -3 9 -17 21 -30 12 -13 35 -44 52 -69 17 -25 34
-46 39 -48 4 -2 8 -9 8 -17 0 -7 7 -18 15 -25 9 -7 23 -28 31 -46 9 -19 20
-34 25 -34 5 0 9 -6 9 -13 0 -8 9 -22 20 -32 11 -10 20 -24 20 -31 0 -7 4 -14
8 -16 4 -1 17 -19 28 -38 12 -19 43 -71 71 -115 27 -44 52 -87 56 -95 4 -8 17
-31 28 -50 65 -107 324 -599 328 -622 1 -5 18 -43 38 -85 20 -43 38 -80 38
-83 1 -3 7 -18 14 -35 23 -54 32 -80 31 -84 -1 -2 2 -7 7 -10 4 -3 23 -44 42
-91 18 -47 45 -112 58 -145 25 -59 30 -72 72 -185 40 -109 123 -345 126 -360
2 -8 15 -51 29 -95 49 -150 103 -337 110 -375 3 -14 5 -25 6 -25 1 0 3 -7 5
-15 22 -86 32 -113 39 -102 4 7 4 12 -1 12 -4 0 -3 4 3 8 7 4 15 25 18 47 4
22 9 50 11 62 3 13 7 33 10 45 13 67 17 87 26 127 5 24 12 63 15 86 3 24 7 54
10 66 3 13 7 35 8 49 3 25 24 163 31 210 7 44 21 176 29 273 3 31 8 85 11 120
15 176 20 323 19 637 0 350 -7 524 -29 720 -3 30 -8 75 -10 100 -2 25 -6 63
-9 85 -3 22 -8 64 -12 93 -3 29 -7 63 -10 75 -9 43 -14 74 -18 108 -14 106
-19 135 -23 142 -3 5 -7 23 -9 40 -1 18 -10 63 -19 100 -8 37 -13 72 -10 77 3
5 1 11 -5 15 -5 3 -10 16 -10 27 0 12 -4 35 -9 52 -5 17 -14 49 -20 71 -5 22
-17 67 -26 100 -9 33 -18 67 -20 75 -13 54 -35 129 -44 153 -6 15 -8 27 -5 27
4 0 1 7 -6 15 -7 8 -9 15 -5 15 4 0 2 7 -5 15 -7 8 -9 15 -5 15 4 0 2 7 -5 15
-7 8 -10 15 -7 15 3 0 -4 24 -15 53 -11 28 -22 61 -25 72 -3 11 -7 27 -11 35
-3 8 -6 18 -7 23 -2 4 -4 9 -5 12 -1 3 -3 8 -5 13 -3 10 -15 43 -27 72 -19 45
-27 64 -54 135 -28 75 -51 127 -92 215 -14 30 -26 57 -27 60 -1 10 -160 325
-166 330 -6 5 -64 108 -83 147 -6 13 -14 23 -18 23 -5 0 -8 5 -8 11 0 6 -14
31 -30 56 -16 24 -30 48 -30 54 0 5 -4 9 -10 9 -5 0 -10 4 -10 10 0 9 -136
217 -150 230 -3 3 -17 21 -30 40 -14 19 -28 40 -32 45 -19 26 -213 271 -218
275 -3 3 -18 21 -34 40 -118 144 -402 430 -576 580 -14 12 -36 31 -50 43 -14
12 -61 51 -105 87 -44 36 -91 75 -105 87 -14 13 -28 23 -31 23 -3 0 -22 13
-40 30 -19 16 -37 30 -41 30 -4 0 -13 6 -20 13 -7 7 -35 28 -63 47 -27 19 -51
38 -53 43 -2 4 -10 7 -17 7 -7 0 -15 3 -17 8 -5 11 -95 72 -106 72 -6 0 -12 4
-14 8 -3 9 -93 72 -103 72 -7 0 -68 42 -76 53 -3 5 -8 7 -10 6 -2 -2 -15 4
-29 13 -105 64 -162 97 -295 171 -114 63 -580 288 -625 302 -3 1 -31 13 -64
28 -32 15 -62 27 -66 27 -4 0 -20 6 -36 14 -16 8 -52 24 -80 35 l-52 20 1
-177z"/>
</g>
</svg>
