<?xml version="1.0" encoding="iso-8859-1"?>
<!-- Generator: Adobe Illustrator 19.0.1, SVG Export Plug-In . SVG Version: 6.00 Build 0)  -->
<svg version="1.1" xmlns="http://www.w3.org/2000/svg" xmlns:xlink="http://www.w3.org/1999/xlink" x="0px" y="0px"
	 viewBox="0 0 128 128" style="enable-background:new 0 0 128 128;" xml:space="preserve">
<g id="_x32_9">
	<path id="_x32_9_1_" transform="matrix(0.16281262,0,0,0.16281262,562.63847,796.61958)" style="fill:#171617;" d="
		M-3063.988-4891.682c-147.644,0-267.366,119.738-267.366,267.458c0,57.706,18.26,111.167,49.319,154.864
		c0.031,0.047,0.061,0.089,0.091,0.135c71.661,112.016,191.867,209.768,206.271,352.617c1.415,5.041,6.468,8.767,11.682,8.767
		c5.213,0,10.266-3.726,11.681-8.767c14.405-142.848,134.569-240.604,206.223-352.617c0.031-0.046,0.061-0.09,0.09-0.135
		c31.059-43.698,49.319-97.159,49.319-154.864c0-147.72-119.668-267.458-267.319-267.458H-3063.988z M-3063.988-4815.427
		c105.564,0,191.149,85.635,191.149,191.249c0,105.618-85.585,191.201-191.149,191.201c-105.56,0-191.15-85.583-191.15-191.201
		C-3255.137-4729.794-3169.547-4815.427-3063.988-4815.427z M-3036.479-4752.381c7.628,0,17.261,5.204,17.261,12.833v75.584h70.495
		c7.628,0,17.876,4.59,17.876,12.216v55.094c0,7.625-10.248,8.476-17.876,8.476h-70.495v79.278c0,7.629-9.637,9.139-17.261,9.139
		h-55.065c-7.622,0-16.044-1.51-16.044-9.139v-79.278h-71.665c-7.626,0-16.706-0.849-16.706-8.476v-55.094
		c0-7.625,9.08-12.216,16.706-12.216h71.665v-75.584c0-7.627,8.423-12.833,16.044-12.833H-3036.479z"/>
</g>
<g id="Layer_1">
</g>
</svg>
