
<svg class="logo-leaves" width="28" height="37" viewBox="0 0 28 37" fill="none"
  xmlns="http://www.w3.org/2000/svg">
  <path fill-rule="evenodd" clip-rule="evenodd"
    d="M27.3747 24.0496C27.3747 24.0496 32.1687 6.58411 15.2092 0C15.583 4.23752 11.0179 31.4716 25.7591 25.6043C25.7591 25.6043 25.5384 18.9383 22.7634 14.2775C22.7634 14.2775 25.7327 17.6447 27.3747 24.0496Z"
    fill="#99CC00" />
  <path fill-rule="evenodd" clip-rule="evenodd"
    d="M25.9412 29.8469C25.9412 29.8469 25.4342 30.9607 25.1488 32.5715C24.4776 36.3664 20.7134 41.263 -1.52588e-05 30.2222C-1.52588e-05 30.2222 11.0088 16.4046 24.9415 27.4681C24.9415 27.4681 20.8553 26.2708 14.588 28.3977C14.588 28.3977 22.7908 27.5567 25.9412 29.8469Z"
    fill="#669900" />
  </svg>
