<svg width="302" height="303" viewBox="0 0 302 303" fill="none" xmlns="http://www.w3.org/2000/svg">
<path d="M296.684 223.822V267.82C296.7 271.905 295.864 275.948 294.227 279.69C292.591 283.433 290.191 286.792 287.181 289.554C284.171 292.315 280.618 294.417 276.749 295.726C272.879 297.035 268.779 297.521 264.711 297.153C219.581 292.249 176.23 276.828 138.142 252.128C102.706 229.61 72.662 199.566 50.1444 164.13C25.3581 125.869 9.93313 82.3071 5.11904 36.9738C4.75254 32.9181 5.23454 28.8305 6.53434 24.9713C7.83414 21.1121 9.92327 17.5658 12.6687 14.5583C15.4142 11.5507 18.7558 9.1477 22.4808 7.50234C26.2058 5.85697 30.2326 5.00526 34.3049 5.00142H78.3036C85.4212 4.93137 92.3214 7.45184 97.7182 12.093C103.115 16.7342 106.64 23.1794 107.636 30.2274C109.493 44.3079 112.937 58.1332 117.902 71.4395C119.876 76.6889 120.303 82.3939 119.133 87.8786C117.963 93.3632 115.246 98.3977 111.303 102.385L92.6765 121.011C113.555 157.729 143.956 188.131 180.674 209.009L199.3 190.383C203.288 186.439 208.322 183.722 213.807 182.552C219.291 181.383 224.996 181.81 230.246 183.783C243.552 188.748 257.377 192.192 271.458 194.049C278.582 195.054 285.089 198.643 289.74 204.132C294.391 209.622 296.862 216.629 296.684 223.822Z" stroke="#669900" stroke-width="10" stroke-linecap="round" stroke-linejoin="round"/>
</svg>
